<?xml version="1.0" encoding="UTF-8" standalone="no"?>
<!DOCTYPE svg PUBLIC "-//W3C//DTD SVG 1.1//EN"
 "http://www.w3.org/Graphics/SVG/1.1/DTD/svg11.dtd">
<!-- Generated by graphviz version 8.0.5 (20230430.1635)
 -->
<!-- Title: G Pages: 1 -->
<svg width="190pt" height="336pt"
 viewBox="0.00 0.00 189.75 336.00" xmlns="http://www.w3.org/2000/svg" xmlns:xlink="http://www.w3.org/1999/xlink">
<g id="graph0" class="graph" transform="scale(1 1) rotate(0) translate(4 332)">
<title>G</title>
<polygon fill="white" stroke="none" points="-4,4 -4,-332 185.75,-332 185.75,4 -4,4"/>
<!-- dearimgui -->
<g id="node1" class="node">
<title>dearimgui</title>
<polygon fill="none" stroke="black" points="71.5,-182 0,-182 0,-146 71.5,-146 71.5,-182"/>
<text text-anchor="middle" x="35.75" y="-158.95" font-family="Times,serif" font-size="14.00" fill="blue">dearimgui</text>
</g>
<!-- glfw -->
<g id="node2" class="node">
<title>glfw</title>
<polygon fill="none" stroke="black" points="94.75,-36 40.75,-36 40.75,0 94.75,0 94.75,-36"/>
<text text-anchor="middle" x="67.75" y="-12.95" font-family="Times,serif" font-size="14.00" fill="blue">glfw</text>
</g>
<!-- dearimgui&#45;&gt;glfw -->
<g id="edge1" class="edge">
<title>dearimgui&#45;&gt;glfw</title>
<path fill="none" stroke="black" stroke-dasharray="5,2" d="M56.12,-145.51C56.12,-145.51 56.12,-47.34 56.12,-47.34"/>
<polygon fill="black" stroke="black" points="59.63,-47.34 56.12,-37.34 52.63,-47.34 59.63,-47.34"/>
</g>
<!-- glad -->
<g id="node3" class="node">
<title>glad</title>
<polygon fill="none" stroke="black" points="181.75,-182 127.75,-182 127.75,-146 181.75,-146 181.75,-182"/>
<text text-anchor="middle" x="154.75" y="-158.95" font-family="Times,serif" font-size="14.00" fill="blue">glad</text>
</g>
<!-- glfw_imgui_example -->
<g id="node4" class="node">
<title>glfw_imgui_example</title>
<polygon fill="none" stroke="black" points="166.25,-328 33.25,-328 33.25,-292 166.25,-292 166.25,-328"/>
<text text-anchor="middle" x="99.75" y="-304.95" font-family="Times,serif" font-size="14.00" fill="blue">glfw_imgui_example</text>
</g>
<!-- glfw_imgui_example&#45;&gt;dearimgui -->
<g id="edge2" class="edge">
<title>glfw_imgui_example&#45;&gt;dearimgui</title>
<path fill="none" stroke="blue" d="M52.38,-291.51C52.38,-291.51 52.38,-193.34 52.38,-193.34"/>
<polygon fill="blue" stroke="blue" points="55.88,-193.34 52.38,-183.34 48.88,-193.34 55.88,-193.34"/>
</g>
<!-- glfw_imgui_example&#45;&gt;glfw -->
<g id="edge4" class="edge">
<title>glfw_imgui_example&#45;&gt;glfw</title>
<path fill="none" stroke="blue" d="M83.12,-291.73C83.12,-291.73 83.12,-47.26 83.12,-47.26"/>
<polygon fill="blue" stroke="blue" points="86.63,-47.26 83.12,-37.26 79.63,-47.26 86.63,-47.26"/>
</g>
<!-- glfw_imgui_example&#45;&gt;glad -->
<g id="edge3" class="edge">
<title>glfw_imgui_example&#45;&gt;glad</title>
<path fill="none" stroke="blue" d="M147,-291.51C147,-291.51 147,-193.34 147,-193.34"/>
<polygon fill="blue" stroke="blue" points="150.5,-193.34 147,-183.34 143.5,-193.34 150.5,-193.34"/>
</g>
</g>
</svg>
