<?xml version="1.0" encoding="UTF-8" standalone="no"?>
<!DOCTYPE svg PUBLIC "-//W3C//DTD SVG 1.1//EN"
 "http://www.w3.org/Graphics/SVG/1.1/DTD/svg11.dtd">
<!-- Generated by graphviz version 8.0.5 (20230430.1635)
 -->
<!-- Title: G Pages: 1 -->
<svg width="354pt" height="482pt"
 viewBox="0.00 0.00 354.12 482.00" xmlns="http://www.w3.org/2000/svg" xmlns:xlink="http://www.w3.org/1999/xlink">
<g id="graph0" class="graph" transform="scale(1 1) rotate(0) translate(4 478)">
<title>G</title>
<polygon fill="white" stroke="none" points="-4,4 -4,-478 350.12,-478 350.12,4 -4,4"/>
<!-- dearimgui -->
<g id="node1" class="node">
<title>dearimgui</title>
<polygon fill="none" stroke="black" points="195.25,-328 123.75,-328 123.75,-292 195.25,-292 195.25,-328"/>
<text text-anchor="middle" x="159.5" y="-304.95" font-family="Times,serif" font-size="14.00" fill="blue">dearimgui</text>
</g>
<!-- decovar_vcpkg_cmake -->
<g id="node2" class="node">
<title>decovar_vcpkg_cmake</title>
<polygon fill="none" stroke="black" points="346.12,-182 204.88,-182 204.88,-146 346.12,-146 346.12,-182"/>
<text text-anchor="middle" x="275.5" y="-158.95" font-family="Times,serif" font-size="14.00" fill="blue">decovar_vcpkg_cmake</text>
</g>
<!-- dearimgui&#45;&gt;decovar_vcpkg_cmake -->
<g id="edge1" class="edge">
<title>dearimgui&#45;&gt;decovar_vcpkg_cmake</title>
<path fill="none" stroke="black" d="M192.33,-291.51C192.33,-252.22 192.33,-164 192.33,-164 192.33,-164 193.6,-164 193.6,-164"/>
<polygon fill="black" stroke="black" points="193.6,-167.5 203.6,-164 193.6,-160.5 193.6,-167.5"/>
</g>
<!-- glfw -->
<g id="node3" class="node">
<title>glfw</title>
<polygon fill="none" stroke="black" points="186.5,-182 132.5,-182 132.5,-146 186.5,-146 186.5,-182"/>
<text text-anchor="middle" x="159.5" y="-158.95" font-family="Times,serif" font-size="14.00" fill="blue">glfw</text>
</g>
<!-- dearimgui&#45;&gt;glfw -->
<g id="edge2" class="edge">
<title>dearimgui&#45;&gt;glfw</title>
<path fill="none" stroke="black" d="M159.5,-291.51C159.5,-291.51 159.5,-193.34 159.5,-193.34"/>
<polygon fill="black" stroke="black" points="163,-193.34 159.5,-183.34 156,-193.34 163,-193.34"/>
</g>
<!-- vcpkg_cmake -->
<g id="node4" class="node">
<title>vcpkg_cmake</title>
<polygon fill="none" stroke="black" points="268.38,-36 176.62,-36 176.62,0 268.38,0 268.38,-36"/>
<text text-anchor="middle" x="222.5" y="-12.95" font-family="Times,serif" font-size="14.00" fill="blue">vcpkg_cmake</text>
</g>
<!-- dearimgui&#45;&gt;vcpkg_cmake -->
<g id="edge3" class="edge">
<title>dearimgui&#45;&gt;vcpkg_cmake</title>
<path fill="none" stroke="black" d="M189.42,-291.73C189.42,-291.73 189.42,-47.26 189.42,-47.26"/>
<polygon fill="black" stroke="black" points="192.92,-47.26 189.42,-37.26 185.92,-47.26 192.92,-47.26"/>
</g>
<!-- vcpkg_cmake_config -->
<g id="node5" class="node">
<title>vcpkg_cmake_config</title>
<polygon fill="none" stroke="black" points="159,-36 26,-36 26,0 159,0 159,-36"/>
<text text-anchor="middle" x="92.5" y="-12.95" font-family="Times,serif" font-size="14.00" fill="blue">vcpkg_cmake_config</text>
</g>
<!-- dearimgui&#45;&gt;vcpkg_cmake_config -->
<g id="edge4" class="edge">
<title>dearimgui&#45;&gt;vcpkg_cmake_config</title>
<path fill="none" stroke="black" d="M128.12,-291.73C128.12,-291.73 128.12,-47.26 128.12,-47.26"/>
<polygon fill="black" stroke="black" points="131.63,-47.26 128.12,-37.26 124.63,-47.26 131.63,-47.26"/>
</g>
<!-- glfw&#45;&gt;vcpkg_cmake -->
<g id="edge5" class="edge">
<title>glfw&#45;&gt;vcpkg_cmake</title>
<path fill="none" stroke="black" d="M183.21,-145.51C183.21,-145.51 183.21,-47.34 183.21,-47.34"/>
<polygon fill="black" stroke="black" points="186.71,-47.34 183.21,-37.34 179.71,-47.34 186.71,-47.34"/>
</g>
<!-- glfw&#45;&gt;vcpkg_cmake_config -->
<g id="edge6" class="edge">
<title>glfw&#45;&gt;vcpkg_cmake_config</title>
<path fill="none" stroke="black" d="M145.75,-145.51C145.75,-145.51 145.75,-47.34 145.75,-47.34"/>
<polygon fill="black" stroke="black" points="149.25,-47.34 145.75,-37.34 142.25,-47.34 149.25,-47.34"/>
</g>
<!-- glad -->
<g id="node6" class="node">
<title>glad</title>
<polygon fill="none" stroke="black" points="55.5,-182 1.5,-182 1.5,-146 55.5,-146 55.5,-182"/>
<text text-anchor="middle" x="28.5" y="-158.95" font-family="Times,serif" font-size="14.00" fill="blue">glad</text>
</g>
<!-- glad&#45;&gt;vcpkg_cmake -->
<g id="edge7" class="edge">
<title>glad&#45;&gt;vcpkg_cmake</title>
<path fill="none" stroke="black" d="M45.67,-145.58C45.67,-123.95 45.67,-91 45.67,-91 45.67,-91 179.92,-91 179.92,-91 179.92,-91 179.92,-47.42 179.92,-47.42"/>
<polygon fill="black" stroke="black" points="183.42,-47.42 179.92,-37.42 176.42,-47.42 183.42,-47.42"/>
</g>
<!-- glad&#45;&gt;vcpkg_cmake_config -->
<g id="edge8" class="edge">
<title>glad&#45;&gt;vcpkg_cmake_config</title>
<path fill="none" stroke="black" d="M35.83,-145.51C35.83,-145.51 35.83,-47.34 35.83,-47.34"/>
<polygon fill="black" stroke="black" points="39.33,-47.34 35.83,-37.34 32.33,-47.34 39.33,-47.34"/>
</g>
<!-- glfw_imgui_example -->
<g id="node7" class="node">
<title>glfw_imgui_example</title>
<polygon fill="none" stroke="black" points="133,-474 0,-474 0,-438 133,-438 133,-474"/>
<text text-anchor="middle" x="66.5" y="-450.95" font-family="Times,serif" font-size="14.00" fill="blue">glfw_imgui_example</text>
</g>
<!-- glfw_imgui_example&#45;&gt;dearimgui -->
<g id="edge9" class="edge">
<title>glfw_imgui_example&#45;&gt;dearimgui</title>
<path fill="none" stroke="black" d="M128.38,-437.51C128.38,-437.51 128.38,-339.34 128.38,-339.34"/>
<polygon fill="black" stroke="black" points="131.88,-339.34 128.38,-329.34 124.88,-339.34 131.88,-339.34"/>
</g>
<!-- glfw_imgui_example&#45;&gt;glfw -->
<g id="edge10" class="edge">
<title>glfw_imgui_example&#45;&gt;glfw</title>
<path fill="none" stroke="black" d="M89.62,-437.73C89.62,-373.81 89.62,-164 89.62,-164 89.62,-164 121.28,-164 121.28,-164"/>
<polygon fill="black" stroke="black" points="121.28,-167.5 131.28,-164 121.28,-160.5 121.28,-167.5"/>
</g>
<!-- glfw_imgui_example&#45;&gt;glad -->
<g id="edge11" class="edge">
<title>glfw_imgui_example&#45;&gt;glad</title>
<path fill="none" stroke="black" d="M28.5,-437.73C28.5,-437.73 28.5,-193.26 28.5,-193.26"/>
<polygon fill="black" stroke="black" points="32,-193.26 28.5,-183.26 25,-193.26 32,-193.26"/>
</g>
<!-- empty -->
<g id="node8" class="node">
<title>empty</title>
<polygon fill="none" stroke="black" points="243.75,-474 151.25,-474 151.25,-438 243.75,-438 243.75,-474"/>
<text text-anchor="middle" x="197.5" y="-450.95" font-family="Times,serif" font-size="14.00" fill="blue">3 singletons...</text>
</g>
</g>
</svg>
