<?xml version="1.0" encoding="UTF-8" standalone="no"?>
<!DOCTYPE svg PUBLIC "-//W3C//DTD SVG 1.1//EN"
 "http://www.w3.org/Graphics/SVG/1.1/DTD/svg11.dtd">
<!-- Generated by graphviz version 8.0.5 (20230430.1635)
 -->
<!-- Title: G Pages: 1 -->
<svg width="2094pt" height="552pt"
 viewBox="0.00 0.00 2094.12 552.00" xmlns="http://www.w3.org/2000/svg" xmlns:xlink="http://www.w3.org/1999/xlink">
<g id="graph0" class="graph" transform="scale(1 1) rotate(0) translate(4 548)">
<title>G</title>
<polygon fill="white" stroke="none" points="-4,4 -4,-548 2090.12,-548 2090.12,4 -4,4"/>
<!-- assimp -->
<g id="node1" class="node">
<title>assimp</title>
<polygon fill="none" stroke="black" points="479.12,-326 424.88,-326 424.88,-290 479.12,-290 479.12,-326"/>
<text text-anchor="middle" x="452" y="-302.95" font-family="Times,serif" font-size="14.00" fill="blue">assimp</text>
</g>
<!-- zlib -->
<g id="node2" class="node">
<title>zlib</title>
<polygon fill="none" stroke="black" points="219,-36 165,-36 165,0 219,0 219,-36"/>
<text text-anchor="middle" x="192" y="-12.95" font-family="Times,serif" font-size="14.00" fill="blue">zlib</text>
</g>
<!-- assimp&#45;&gt;zlib -->
<g id="edge1" class="edge">
<title>assimp&#45;&gt;zlib</title>
<path fill="none" stroke="black" stroke-dasharray="5,2" d="M443.44,-289.75C443.44,-224.83 443.44,-9 443.44,-9 443.44,-9 230.39,-9 230.39,-9"/>
<polygon fill="black" stroke="black" points="230.39,-5.5 220.39,-9 230.39,-12.5 230.39,-5.5"/>
</g>
<!-- brotli -->
<g id="node3" class="node">
<title>brotli</title>
<polygon fill="none" stroke="black" points="164,-182 110,-182 110,-146 164,-146 164,-182"/>
<text text-anchor="middle" x="137" y="-158.95" font-family="Times,serif" font-size="14.00" fill="blue">brotli</text>
</g>
<!-- catch2 -->
<g id="node4" class="node">
<title>catch2</title>
<polygon fill="none" stroke="black" points="422,-398 368,-398 368,-362 422,-362 422,-398"/>
<text text-anchor="middle" x="395" y="-374.95" font-family="Times,serif" font-size="14.00" fill="blue">catch2</text>
</g>
<!-- clara -->
<g id="node5" class="node">
<title>clara</title>
<polygon fill="none" stroke="black" points="494,-398 440,-398 440,-362 494,-362 494,-398"/>
<text text-anchor="middle" x="467" y="-374.95" font-family="Times,serif" font-size="14.00" fill="blue">clara</text>
</g>
<!-- cpp_http -->
<g id="node6" class="node">
<title>cpp_http</title>
<polygon fill="none" stroke="black" points="163.62,-398 100.38,-398 100.38,-362 163.62,-362 163.62,-398"/>
<text text-anchor="middle" x="132" y="-374.95" font-family="Times,serif" font-size="14.00" fill="blue">cpp_http</text>
</g>
<!-- cpp_http&#45;&gt;zlib -->
<g id="edge3" class="edge">
<title>cpp_http&#45;&gt;zlib</title>
<path fill="none" stroke="black" stroke-dasharray="5,2" d="M164.11,-380C178.37,-380 192,-380 192,-380 192,-380 192,-47.45 192,-47.45"/>
<polygon fill="black" stroke="black" points="195.5,-47.45 192,-37.45 188.5,-47.45 195.5,-47.45"/>
</g>
<!-- cpp_http&#45;&gt;brotli -->
<g id="edge2" class="edge">
<title>cpp_http&#45;&gt;brotli</title>
<path fill="none" stroke="black" stroke-dasharray="5,2" d="M136.81,-361.58C136.81,-361.58 136.81,-193.37 136.81,-193.37"/>
<polygon fill="black" stroke="black" points="140.31,-193.37 136.81,-183.37 133.31,-193.37 140.31,-193.37"/>
</g>
<!-- dear_imgui -->
<g id="node7" class="node">
<title>dear_imgui</title>
<polygon fill="none" stroke="black" points="781.12,-182 702.88,-182 702.88,-146 781.12,-146 781.12,-182"/>
<text text-anchor="middle" x="742" y="-158.95" font-family="Times,serif" font-size="14.00" fill="blue">dear_imgui</text>
</g>
<!-- glfw -->
<g id="node8" class="node">
<title>glfw</title>
<polygon fill="none" stroke="black" points="1353,-36 1299,-36 1299,0 1353,0 1353,-36"/>
<text text-anchor="middle" x="1326" y="-12.95" font-family="Times,serif" font-size="14.00" fill="blue">glfw</text>
</g>
<!-- dear_imgui&#45;&gt;glfw -->
<g id="edge4" class="edge">
<title>dear_imgui&#45;&gt;glfw</title>
<path fill="none" stroke="black" stroke-dasharray="5,2" d="M742,-145.67C742,-105.24 742,-12 742,-12 742,-12 1287.62,-12 1287.62,-12"/>
<polygon fill="black" stroke="black" points="1287.62,-15.5 1297.62,-12 1287.62,-8.5 1287.62,-15.5"/>
</g>
<!-- draco -->
<g id="node9" class="node">
<title>draco</title>
<polygon fill="none" stroke="black" points="714,-398 660,-398 660,-362 714,-362 714,-398"/>
<text text-anchor="middle" x="687" y="-374.95" font-family="Times,serif" font-size="14.00" fill="blue">draco</text>
</g>
<!-- e57format -->
<g id="node10" class="node">
<title>e57format</title>
<polygon fill="none" stroke="black" points="842.12,-398 769.88,-398 769.88,-362 842.12,-362 842.12,-398"/>
<text text-anchor="middle" x="806" y="-374.95" font-family="Times,serif" font-size="14.00" fill="blue">e57format</text>
</g>
<!-- rapidxml -->
<g id="node11" class="node">
<title>rapidxml</title>
<polygon fill="none" stroke="black" points="1335.75,-182 1270.25,-182 1270.25,-146 1335.75,-146 1335.75,-182"/>
<text text-anchor="middle" x="1303" y="-158.95" font-family="Times,serif" font-size="14.00" fill="blue">rapidxml</text>
</g>
<!-- e57format&#45;&gt;rapidxml -->
<g id="edge5" class="edge">
<title>e57format&#45;&gt;rapidxml</title>
<path fill="none" stroke="black" stroke-dasharray="5,2" d="M811.62,-361.58C811.62,-309.35 811.62,-164 811.62,-164 811.62,-164 1259,-164 1259,-164"/>
<polygon fill="black" stroke="black" points="1259,-167.5 1269,-164 1259,-160.5 1259,-167.5"/>
</g>
<!-- fmt -->
<g id="node12" class="node">
<title>fmt</title>
<polygon fill="none" stroke="black" points="914,-398 860,-398 860,-362 914,-362 914,-398"/>
<text text-anchor="middle" x="887" y="-374.95" font-family="Times,serif" font-size="14.00" fill="blue">fmt</text>
</g>
<!-- glew -->
<g id="node13" class="node">
<title>glew</title>
<polygon fill="none" stroke="black" points="986,-398 932,-398 932,-362 986,-362 986,-398"/>
<text text-anchor="middle" x="959" y="-374.95" font-family="Times,serif" font-size="14.00" fill="blue">glew</text>
</g>
<!-- glslang -->
<g id="node14" class="node">
<title>glslang</title>
<polygon fill="none" stroke="black" points="1059.5,-398 1004.5,-398 1004.5,-362 1059.5,-362 1059.5,-398"/>
<text text-anchor="middle" x="1032" y="-374.95" font-family="Times,serif" font-size="14.00" fill="blue">glslang</text>
</g>
<!-- implot -->
<g id="node15" class="node">
<title>implot</title>
<polygon fill="none" stroke="black" points="642,-398 588,-398 588,-362 642,-362 642,-398"/>
<text text-anchor="middle" x="615" y="-374.95" font-family="Times,serif" font-size="14.00" fill="blue">implot</text>
</g>
<!-- implot&#45;&gt;dear_imgui -->
<g id="edge6" class="edge">
<title>implot&#45;&gt;dear_imgui</title>
<path fill="none" stroke="black" stroke-dasharray="5,2" d="M615,-361.58C615,-309.35 615,-164 615,-164 615,-164 691.51,-164 691.51,-164"/>
<polygon fill="black" stroke="black" points="691.51,-167.5 701.51,-164 691.51,-160.5 691.51,-167.5"/>
</g>
<!-- jpeg_turbo -->
<g id="node16" class="node">
<title>jpeg_turbo</title>
<polygon fill="none" stroke="black" points="1152.25,-398 1077.75,-398 1077.75,-362 1152.25,-362 1152.25,-398"/>
<text text-anchor="middle" x="1115" y="-374.95" font-family="Times,serif" font-size="14.00" fill="blue">jpeg_turbo</text>
</g>
<!-- json_struct -->
<g id="node17" class="node">
<title>json_struct</title>
<polygon fill="none" stroke="black" points="1245.62,-398 1170.38,-398 1170.38,-362 1245.62,-362 1245.62,-398"/>
<text text-anchor="middle" x="1208" y="-374.95" font-family="Times,serif" font-size="14.00" fill="blue">json_struct</text>
</g>
<!-- jsoncpp -->
<g id="node18" class="node">
<title>jsoncpp</title>
<polygon fill="none" stroke="black" points="1322,-398 1264,-398 1264,-362 1322,-362 1322,-398"/>
<text text-anchor="middle" x="1293" y="-374.95" font-family="Times,serif" font-size="14.00" fill="blue">jsoncpp</text>
</g>
<!-- lzma -->
<g id="node19" class="node">
<title>lzma</title>
<polygon fill="none" stroke="black" points="1394,-398 1340,-398 1340,-362 1394,-362 1394,-398"/>
<text text-anchor="middle" x="1367" y="-374.95" font-family="Times,serif" font-size="14.00" fill="blue">lzma</text>
</g>
<!-- some -->
<g id="node20" class="node">
<title>some</title>
<polygon fill="none" stroke="black" points="986,-544 932,-544 932,-508 986,-508 986,-544"/>
<text text-anchor="middle" x="959" y="-520.95" font-family="Times,serif" font-size="14.00" fill="blue">some</text>
</g>
<!-- some&#45;&gt;assimp -->
<g id="edge7" class="edge">
<title>some&#45;&gt;assimp</title>
<path fill="none" stroke="blue" d="M931.8,-526C823.97,-526 432.44,-526 432.44,-526 432.44,-526 432.44,-337.21 432.44,-337.21"/>
<polygon fill="blue" stroke="blue" points="435.94,-337.21 432.44,-327.21 428.94,-337.21 435.94,-337.21"/>
</g>
<!-- some&#45;&gt;zlib -->
<g id="edge36" class="edge">
<title>some&#45;&gt;zlib</title>
<path fill="none" stroke="blue" d="M931.74,-537C796.65,-537 205.5,-537 205.5,-537 205.5,-537 205.5,-47.47 205.5,-47.47"/>
<polygon fill="blue" stroke="blue" points="209,-47.47 205.5,-37.47 202,-47.47 209,-47.47"/>
</g>
<!-- some&#45;&gt;catch2 -->
<g id="edge8" class="edge">
<title>some&#45;&gt;catch2</title>
<path fill="none" stroke="blue" d="M931.8,-528C819.14,-528 395,-528 395,-528 395,-528 395,-409.45 395,-409.45"/>
<polygon fill="blue" stroke="blue" points="398.5,-409.45 395,-399.45 391.5,-409.45 398.5,-409.45"/>
</g>
<!-- some&#45;&gt;clara -->
<g id="edge9" class="edge">
<title>some&#45;&gt;clara</title>
<path fill="none" stroke="blue" d="M931.85,-523C828.7,-523 467,-523 467,-523 467,-523 467,-409.4 467,-409.4"/>
<polygon fill="blue" stroke="blue" points="470.5,-409.4 467,-399.4 463.5,-409.4 470.5,-409.4"/>
</g>
<!-- some&#45;&gt;cpp_http -->
<g id="edge10" class="edge">
<title>some&#45;&gt;cpp_http</title>
<path fill="none" stroke="blue" d="M931.95,-539C789.43,-539 132,-539 132,-539 132,-539 132,-409.24 132,-409.24"/>
<polygon fill="blue" stroke="blue" points="135.5,-409.24 132,-399.24 128.5,-409.24 135.5,-409.24"/>
</g>
<!-- some&#45;&gt;dear_imgui -->
<g id="edge11" class="edge">
<title>some&#45;&gt;dear_imgui</title>
<path fill="none" stroke="blue" d="M931.51,-514C873.1,-514 741.94,-514 741.94,-514 741.94,-514 741.94,-193.32 741.94,-193.32"/>
<polygon fill="blue" stroke="blue" points="745.44,-193.32 741.94,-183.32 738.44,-193.32 745.44,-193.32"/>
</g>
<!-- some&#45;&gt;glfw -->
<g id="edge16" class="edge">
<title>some&#45;&gt;glfw</title>
<path fill="none" stroke="blue" d="M986.47,-526C991.53,-526 995.25,-526 995.25,-526 995.25,-526 995.25,-24 995.25,-24 995.25,-24 1287.65,-24 1287.65,-24"/>
<polygon fill="blue" stroke="blue" points="1287.65,-27.5 1297.65,-24 1287.65,-20.5 1287.65,-27.5"/>
</g>
<!-- some&#45;&gt;draco -->
<g id="edge12" class="edge">
<title>some&#45;&gt;draco</title>
<path fill="none" stroke="blue" d="M931.67,-517C862.7,-517 687,-517 687,-517 687,-517 687,-409.48 687,-409.48"/>
<polygon fill="blue" stroke="blue" points="690.5,-409.48 687,-399.48 683.5,-409.48 690.5,-409.48"/>
</g>
<!-- some&#45;&gt;e57format -->
<g id="edge13" class="edge">
<title>some&#45;&gt;e57format</title>
<path fill="none" stroke="blue" d="M931.65,-512C887.64,-512 806,-512 806,-512 806,-512 806,-409.35 806,-409.35"/>
<polygon fill="blue" stroke="blue" points="809.5,-409.35 806,-399.35 802.5,-409.35 809.5,-409.35"/>
</g>
<!-- some&#45;&gt;rapidxml -->
<g id="edge26" class="edge">
<title>some&#45;&gt;rapidxml</title>
<path fill="none" stroke="blue" d="M986.5,-519C1072.22,-519 1328.88,-519 1328.88,-519 1328.88,-519 1328.88,-193.09 1328.88,-193.09"/>
<polygon fill="blue" stroke="blue" points="1332.38,-193.09 1328.88,-183.09 1325.38,-193.09 1332.38,-193.09"/>
</g>
<!-- some&#45;&gt;fmt -->
<g id="edge14" class="edge">
<title>some&#45;&gt;fmt</title>
<path fill="none" stroke="blue" d="M931.78,-510C911.39,-510 887,-510 887,-510 887,-510 887,-409.35 887,-409.35"/>
<polygon fill="blue" stroke="blue" points="890.5,-409.35 887,-399.35 883.5,-409.35 890.5,-409.35"/>
</g>
<!-- some&#45;&gt;glew -->
<g id="edge15" class="edge">
<title>some&#45;&gt;glew</title>
<path fill="none" stroke="blue" d="M959,-507.51C959,-507.51 959,-409.34 959,-409.34"/>
<polygon fill="blue" stroke="blue" points="962.5,-409.34 959,-399.34 955.5,-409.34 962.5,-409.34"/>
</g>
<!-- some&#45;&gt;glslang -->
<g id="edge17" class="edge">
<title>some&#45;&gt;glslang</title>
<path fill="none" stroke="blue" d="M986.18,-510C1006.94,-510 1032,-510 1032,-510 1032,-510 1032,-409.35 1032,-409.35"/>
<polygon fill="blue" stroke="blue" points="1035.5,-409.35 1032,-399.35 1028.5,-409.35 1035.5,-409.35"/>
</g>
<!-- some&#45;&gt;implot -->
<g id="edge18" class="edge">
<title>some&#45;&gt;implot</title>
<path fill="none" stroke="blue" d="M931.72,-519C850.36,-519 615,-519 615,-519 615,-519 615,-409.46 615,-409.46"/>
<polygon fill="blue" stroke="blue" points="618.5,-409.46 615,-399.46 611.5,-409.46 618.5,-409.46"/>
</g>
<!-- some&#45;&gt;jpeg_turbo -->
<g id="edge19" class="edge">
<title>some&#45;&gt;jpeg_turbo</title>
<path fill="none" stroke="blue" d="M986.17,-512C1030.87,-512 1115,-512 1115,-512 1115,-512 1115,-409.35 1115,-409.35"/>
<polygon fill="blue" stroke="blue" points="1118.5,-409.35 1115,-399.35 1111.5,-409.35 1118.5,-409.35"/>
</g>
<!-- some&#45;&gt;json_struct -->
<g id="edge20" class="edge">
<title>some&#45;&gt;json_struct</title>
<path fill="none" stroke="blue" d="M986.12,-514C1050.66,-514 1208,-514 1208,-514 1208,-514 1208,-409.35 1208,-409.35"/>
<polygon fill="blue" stroke="blue" points="1211.5,-409.35 1208,-399.35 1204.5,-409.35 1211.5,-409.35"/>
</g>
<!-- some&#45;&gt;jsoncpp -->
<g id="edge21" class="edge">
<title>some&#45;&gt;jsoncpp</title>
<path fill="none" stroke="blue" d="M986.33,-517C1066.1,-517 1293,-517 1293,-517 1293,-517 1293,-409.48 1293,-409.48"/>
<polygon fill="blue" stroke="blue" points="1296.5,-409.48 1293,-399.48 1289.5,-409.48 1296.5,-409.48"/>
</g>
<!-- some&#45;&gt;lzma -->
<g id="edge22" class="edge">
<title>some&#45;&gt;lzma</title>
<path fill="none" stroke="blue" d="M986.4,-521C1077.88,-521 1367,-521 1367,-521 1367,-521 1367,-409.43 1367,-409.43"/>
<polygon fill="blue" stroke="blue" points="1370.5,-409.43 1367,-399.43 1363.5,-409.43 1370.5,-409.43"/>
</g>
<!-- pdqsort -->
<g id="node21" class="node">
<title>pdqsort</title>
<polygon fill="none" stroke="black" points="1468.25,-398 1411.75,-398 1411.75,-362 1468.25,-362 1468.25,-398"/>
<text text-anchor="middle" x="1440" y="-374.95" font-family="Times,serif" font-size="14.00" fill="blue">pdqsort</text>
</g>
<!-- some&#45;&gt;pdqsort -->
<g id="edge23" class="edge">
<title>some&#45;&gt;pdqsort</title>
<path fill="none" stroke="blue" d="M986.24,-523C1087.99,-523 1440,-523 1440,-523 1440,-523 1440,-409.4 1440,-409.4"/>
<polygon fill="blue" stroke="blue" points="1443.5,-409.4 1440,-399.4 1436.5,-409.4 1443.5,-409.4"/>
</g>
<!-- png -->
<g id="node22" class="node">
<title>png</title>
<polygon fill="none" stroke="black" points="54,-254 0,-254 0,-218 54,-218 54,-254"/>
<text text-anchor="middle" x="27" y="-230.95" font-family="Times,serif" font-size="14.00" fill="blue">png</text>
</g>
<!-- some&#45;&gt;png -->
<g id="edge24" class="edge">
<title>some&#45;&gt;png</title>
<path fill="none" stroke="blue" d="M931.61,-541C777.67,-541 27,-541 27,-541 27,-541 27,-265.17 27,-265.17"/>
<polygon fill="blue" stroke="blue" points="30.5,-265.17 27,-255.17 23.5,-265.17 30.5,-265.17"/>
</g>
<!-- proj -->
<g id="node23" class="node">
<title>proj</title>
<polygon fill="none" stroke="black" points="312,-398 258,-398 258,-362 312,-362 312,-398"/>
<text text-anchor="middle" x="285" y="-374.95" font-family="Times,serif" font-size="14.00" fill="blue">proj</text>
</g>
<!-- some&#45;&gt;proj -->
<g id="edge25" class="edge">
<title>some&#45;&gt;proj</title>
<path fill="none" stroke="blue" d="M931.74,-532C805.65,-532 285,-532 285,-532 285,-532 285,-409.33 285,-409.33"/>
<polygon fill="blue" stroke="blue" points="288.5,-409.33 285,-399.33 281.5,-409.33 288.5,-409.33"/>
</g>
<!-- sha -->
<g id="node24" class="node">
<title>sha</title>
<polygon fill="none" stroke="black" points="1616,-398 1562,-398 1562,-362 1616,-362 1616,-398"/>
<text text-anchor="middle" x="1589" y="-374.95" font-family="Times,serif" font-size="14.00" fill="blue">sha</text>
</g>
<!-- some&#45;&gt;sha -->
<g id="edge27" class="edge">
<title>some&#45;&gt;sha</title>
<path fill="none" stroke="blue" d="M986.48,-528C1107.73,-528 1589,-528 1589,-528 1589,-528 1589,-409.45 1589,-409.45"/>
<polygon fill="blue" stroke="blue" points="1592.5,-409.45 1589,-399.45 1585.5,-409.45 1592.5,-409.45"/>
</g>
<!-- simdjson -->
<g id="node25" class="node">
<title>simdjson</title>
<polygon fill="none" stroke="black" points="1699.75,-398 1634.25,-398 1634.25,-362 1699.75,-362 1699.75,-398"/>
<text text-anchor="middle" x="1667" y="-374.95" font-family="Times,serif" font-size="14.00" fill="blue">simdjson</text>
</g>
<!-- some&#45;&gt;simdjson -->
<g id="edge28" class="edge">
<title>some&#45;&gt;simdjson</title>
<path fill="none" stroke="blue" d="M986.32,-530C1116.43,-530 1667,-530 1667,-530 1667,-530 1667,-409.39 1667,-409.39"/>
<polygon fill="blue" stroke="blue" points="1670.5,-409.39 1667,-399.39 1663.5,-409.39 1670.5,-409.39"/>
</g>
<!-- slug -->
<g id="node26" class="node">
<title>slug</title>
<polygon fill="none" stroke="black" points="1772,-398 1718,-398 1718,-362 1772,-362 1772,-398"/>
<text text-anchor="middle" x="1745" y="-374.95" font-family="Times,serif" font-size="14.00" fill="blue">slug</text>
</g>
<!-- some&#45;&gt;slug -->
<g id="edge29" class="edge">
<title>some&#45;&gt;slug</title>
<path fill="none" stroke="blue" d="M986.06,-532C1124.27,-532 1745,-532 1745,-532 1745,-532 1745,-409.33 1745,-409.33"/>
<polygon fill="blue" stroke="blue" points="1748.5,-409.33 1745,-399.33 1741.5,-409.33 1748.5,-409.33"/>
</g>
<!-- spirv_cross -->
<g id="node27" class="node">
<title>spirv_cross</title>
<polygon fill="none" stroke="black" points="1867.75,-398 1790.25,-398 1790.25,-362 1867.75,-362 1867.75,-398"/>
<text text-anchor="middle" x="1829" y="-374.95" font-family="Times,serif" font-size="14.00" fill="blue">spirv_cross</text>
</g>
<!-- some&#45;&gt;spirv_cross -->
<g id="edge30" class="edge">
<title>some&#45;&gt;spirv_cross</title>
<path fill="none" stroke="blue" d="M986.47,-535C1134.36,-535 1829,-535 1829,-535 1829,-535 1829,-409.39 1829,-409.39"/>
<polygon fill="blue" stroke="blue" points="1832.5,-409.39 1829,-399.39 1825.5,-409.39 1832.5,-409.39"/>
</g>
<!-- sqlite -->
<g id="node28" class="node">
<title>sqlite</title>
<polygon fill="none" stroke="black" points="364,-182 310,-182 310,-146 364,-146 364,-182"/>
<text text-anchor="middle" x="337" y="-158.95" font-family="Times,serif" font-size="14.00" fill="blue">sqlite</text>
</g>
<!-- some&#45;&gt;sqlite -->
<g id="edge31" class="edge">
<title>some&#45;&gt;sqlite</title>
<path fill="none" stroke="blue" d="M931.52,-530C811.33,-530 338,-530 338,-530 338,-530 338,-193.4 338,-193.4"/>
<polygon fill="blue" stroke="blue" points="341.5,-193.4 338,-183.4 334.5,-193.4 341.5,-193.4"/>
</g>
<!-- stb -->
<g id="node29" class="node">
<title>stb</title>
<polygon fill="none" stroke="black" points="1940,-398 1886,-398 1886,-362 1940,-362 1940,-398"/>
<text text-anchor="middle" x="1913" y="-374.95" font-family="Times,serif" font-size="14.00" fill="blue">stb</text>
</g>
<!-- some&#45;&gt;stb -->
<g id="edge32" class="edge">
<title>some&#45;&gt;stb</title>
<path fill="none" stroke="blue" d="M986.27,-537C1142.1,-537 1913,-537 1913,-537 1913,-537 1913,-409.32 1913,-409.32"/>
<polygon fill="blue" stroke="blue" points="1916.5,-409.32 1913,-399.32 1909.5,-409.32 1916.5,-409.32"/>
</g>
<!-- stduuid -->
<g id="node30" class="node">
<title>stduuid</title>
<polygon fill="none" stroke="black" points="2013.88,-398 1958.12,-398 1958.12,-362 2013.88,-362 2013.88,-398"/>
<text text-anchor="middle" x="1986" y="-374.95" font-family="Times,serif" font-size="14.00" fill="blue">stduuid</text>
</g>
<!-- some&#45;&gt;stduuid -->
<g id="edge33" class="edge">
<title>some&#45;&gt;stduuid</title>
<path fill="none" stroke="blue" d="M986.47,-539C1149.79,-539 1986,-539 1986,-539 1986,-539 1986,-409.24 1986,-409.24"/>
<polygon fill="blue" stroke="blue" points="1989.5,-409.24 1986,-399.24 1982.5,-409.24 1989.5,-409.24"/>
</g>
<!-- tiff -->
<g id="node31" class="node">
<title>tiff</title>
<polygon fill="none" stroke="black" points="285,-182 231,-182 231,-146 285,-146 285,-182"/>
<text text-anchor="middle" x="258" y="-158.95" font-family="Times,serif" font-size="14.00" fill="blue">tiff</text>
</g>
<!-- some&#45;&gt;tiff -->
<g id="edge34" class="edge">
<title>some&#45;&gt;tiff</title>
<path fill="none" stroke="blue" d="M931.86,-535C801.35,-535 244.5,-535 244.5,-535 244.5,-535 244.5,-193.4 244.5,-193.4"/>
<polygon fill="blue" stroke="blue" points="248,-193.4 244.5,-183.4 241,-193.4 248,-193.4"/>
</g>
<!-- xxhash -->
<g id="node32" class="node">
<title>xxhash</title>
<polygon fill="none" stroke="black" points="2086.12,-398 2031.88,-398 2031.88,-362 2086.12,-362 2086.12,-398"/>
<text text-anchor="middle" x="2059" y="-374.95" font-family="Times,serif" font-size="14.00" fill="blue">xxhash</text>
</g>
<!-- some&#45;&gt;xxhash -->
<g id="edge35" class="edge">
<title>some&#45;&gt;xxhash</title>
<path fill="none" stroke="blue" d="M986.47,-541C1156.56,-541 2059,-541 2059,-541 2059,-541 2059,-409.47 2059,-409.47"/>
<polygon fill="blue" stroke="blue" points="2062.5,-409.47 2059,-399.47 2055.5,-409.47 2062.5,-409.47"/>
</g>
<!-- zstd -->
<g id="node33" class="node">
<title>zstd</title>
<polygon fill="none" stroke="black" points="516,-36 462,-36 462,0 516,0 516,-36"/>
<text text-anchor="middle" x="489" y="-12.95" font-family="Times,serif" font-size="14.00" fill="blue">zstd</text>
</g>
<!-- some&#45;&gt;zstd -->
<g id="edge37" class="edge">
<title>some&#45;&gt;zstd</title>
<path fill="none" stroke="blue" d="M931.62,-521C833.47,-521 505,-521 505,-521 505,-521 505,-47.5 505,-47.5"/>
<polygon fill="blue" stroke="blue" points="508.5,-47.5 505,-37.5 501.5,-47.5 508.5,-47.5"/>
</g>
<!-- png&#45;&gt;zlib -->
<g id="edge38" class="edge">
<title>png&#45;&gt;zlib</title>
<path fill="none" stroke="black" stroke-dasharray="5,2" d="M54.44,-236C98.09,-236 178.5,-236 178.5,-236 178.5,-236 178.5,-47.21 178.5,-47.21"/>
<polygon fill="black" stroke="black" points="182,-47.21 178.5,-37.21 175,-47.21 182,-47.21"/>
</g>
<!-- proj&#45;&gt;sqlite -->
<g id="edge39" class="edge">
<title>proj&#45;&gt;sqlite</title>
<path fill="none" stroke="black" stroke-dasharray="5,2" d="M297.5,-361.58C297.5,-309.35 297.5,-164 297.5,-164 297.5,-164 298.71,-164 298.71,-164"/>
<polygon fill="black" stroke="black" points="298.57,-167.5 308.57,-164 298.57,-160.5 298.57,-167.5"/>
</g>
<!-- proj&#45;&gt;tiff -->
<g id="edge40" class="edge">
<title>proj&#45;&gt;tiff</title>
<path fill="none" stroke="black" stroke-dasharray="5,2" d="M271.5,-361.58C271.5,-361.58 271.5,-193.37 271.5,-193.37"/>
<polygon fill="black" stroke="black" points="275,-193.37 271.5,-183.37 268,-193.37 275,-193.37"/>
</g>
<!-- tiff&#45;&gt;zlib -->
<g id="edge41" class="edge">
<title>tiff&#45;&gt;zlib</title>
<path fill="none" stroke="black" stroke-dasharray="5,2" d="M249,-145.51C249,-106.22 249,-18 249,-18 249,-18 230.5,-18 230.5,-18"/>
<polygon fill="black" stroke="black" points="230.5,-14.5 220.5,-18 230.5,-21.5 230.5,-14.5"/>
</g>
<!-- tiff&#45;&gt;zstd -->
<g id="edge42" class="edge">
<title>tiff&#45;&gt;zstd</title>
<path fill="none" stroke="black" stroke-dasharray="5,2" d="M267,-145.52C267,-108.13 267,-27 267,-27 267,-27 450.78,-27 450.78,-27"/>
<polygon fill="black" stroke="black" points="450.78,-30.5 460.78,-27 450.78,-23.5 450.78,-30.5"/>
</g>
</g>
</svg>
